<?xml version="1.0" standalone="no"?><!DOCTYPE svg PUBLIC "-//W3C//DTD SVG 1.1//EN" "http://www.w3.org/Graphics/SVG/1.1/DTD/svg11.dtd"><svg t="1687691038691" class="icon" viewBox="0 0 1055 1024" version="1.1" xmlns="http://www.w3.org/2000/svg" p-id="15433" xmlns:xlink="http://www.w3.org/1999/xlink" width="206.0546875" height="200"><path d="M572.416 68.608q10.24 1.024 22.016 9.728t21.504 22.016 15.872 30.208 6.144 33.28q0 14.336-6.144 30.208t-15.872 29.696-21.504 22.528-22.016 9.728l-191.488 0 0 637.952q-2.048 26.624-14.336 45.568t-48.128 18.944q-22.528 0-41.472-14.848t-20.992-49.664l0-637.952-188.416 0q-18.432 0-30.208-8.192t-19.456-21.504-11.264-29.696-5.632-32.768q0-16.384 5.12-33.28t13.824-30.72 20.992-22.528 26.624-8.704l504.832 0zM970.752 258.048q-13.312 2.048-16.384 9.216t-3.072 20.48q0 15.36 0.512 39.424t1.024 50.688 0.512 51.2l0 39.936q1.024 10.24-2.048 20.48l0 3.072q0 11.264 0.512 43.008t0.512 69.12 0.512 71.168 0.512 48.128q0 19.456 4.096 30.72t18.432 11.264l46.08 0q18.432 0 23.552 9.728t-8.192 25.088q-12.288 15.36-28.672 36.864t-33.792 44.032-34.304 44.032-30.208 37.888q-12.288 15.36-23.04 15.872t-24.064-13.824q-12.288-15.36-28.672-35.328t-33.792-41.472-34.304-42.496-30.208-37.376q-15.36-17.408-12.288-29.184t22.528-11.776q11.264 0 29.696-0.512t30.72-1.536q12.288 0 15.36-7.168t3.072-21.504l0-49.152q0-34.816-0.512-73.216t-1.024-73.216-0.512-50.176q0-9.216 3.072-18.432l0-5.12q0-10.24-0.512-31.744t-1.024-46.592-0.512-49.664l0-37.888q0-20.48-3.584-31.232t-17.92-10.752q-11.264 0-23.552-1.024t-23.552-1.024q-17.408 2.048-23.04-8.192t6.656-26.624q12.288-15.36 29.184-36.352t34.304-43.52 33.792-44.032 29.696-37.888q13.312-15.36 24.064-15.872t23.04 13.824q12.288 15.36 29.184 35.328t34.304 41.472 34.304 41.984 30.208 36.864q15.36 18.432 12.288 30.208t-22.528 11.776q-11.264-1.024-29.696 0t-30.72 1.024z" p-id="15434"></path></svg>