<?xml version="1.0" standalone="no"?><!DOCTYPE svg PUBLIC "-//W3C//DTD SVG 1.1//EN" "http://www.w3.org/Graphics/SVG/1.1/DTD/svg11.dtd"><svg t="1687686712990" class="icon" viewBox="0 0 1024 1024" version="1.1" xmlns="http://www.w3.org/2000/svg" p-id="2694" xmlns:xlink="http://www.w3.org/1999/xlink" width="200" height="200"><path d="M507.6 255.1c-85.1 0-154 68.9-154 154s68.9 154 154 154 154-68.9 154-154-69-154-154-154z m22.9 178.5v63h-50.8v-63h-63v-50.8h63v-63h50.8v63h63v50.8h-63zM729.5 893h-435c-6.6 0-12-5.4-12-12v-36c0-6.6 5.4-12 12-12h435c6.6 0 12 5.4 12 12v36c0 6.6-5.4 12-12 12z" p-id="2695"></path><path d="M950 190.8c0-33-27-60-60-60H125.1c-33 0-60 27-60 60v516.1-69.5h50V190.8c0-5.4 4.6-10 10-10H890c5.4 0 10 4.6 10 10v446.5h50v69.5-516z" p-id="2696"></path><path d="M900 637.3H65.1v70c0 33 27 60 60 60H890c33 0 60-27 60-60v-70h-50z m-392.4 36.5c15.7 0 28.5 12.8 28.5 28.5s-12.8 28.5-28.5 28.5-28.5-12.8-28.5-28.5 12.7-28.5 28.5-28.5z" p-id="2697"></path></svg>